:FULLY-SPECIFIED
:FORCE-ALL-JOINTS-BE-3DOF
:DEGREES
1019
root 1.15014 15.1618 32.4435 4.86553 -3.55787 3.60032
lfemur 8.48721 0.584515 5.67842
ltibia -2.06736e-14 0 0
lfoot -30.1415 -11.0539 -1.09915e-06
ltoes -34.329 0 0
rfemur -31.631 -15.9064 -6.04683
rtibia 50.161 -0 0
rfoot -22.3932 4.80627 0.00117726
rtoes -42.4612 0 0
lowerback -1.42776 -0.151189 0.274986
upperback -0.546136 -0.190477 -5.92673
thorax 0.217949 -0.102985 -6.30291
lowerneck -7.1595 0.944802 6.20896
upperneck 1.60862 0.577743 3.56431
head 1.72928 0.423337 0.0903991
lclavicle 1.31198e-14 3.18055e-14 0
lhumerus -58.6933 -46.508 115.42
lradius 55.6355 -0 0
lwrist 25.1834 0 0
lhand 37.213 24.8342 0.000268565
lfingers 7.12502 -0 0
lthumb 60.0474 38.5641 0.000129038
rclavicle 1.31198e-14 3.18055e-14 0
rhumerus 2.85295 -23.9008 0.13334
rradius 27.6275 -0 0
rwrist -10.3604 0 0
rhand -30.7561 -43.0098 0.000496606
rfingers 7.12502 -0 0
rthumb -4.04765 -72.9509 0.000475621
1020
root 1.15086 15.1616 32.4458 4.86175 -3.54724 3.59175
lfemur 8.49615 0.573633 5.68652
ltibia -2.06736e-14 0 0
lfoot -30.1452 -11.0535 -1.09915e-06
ltoes -34.3342 0 0
rfemur -31.6163 -15.9179 -6.04748
rtibia 50.1656 -0 0
rfoot -22.3705 4.86007 0.00117726
rtoes -42.3941 0 0
lowerback -1.43978 -0.14491 0.258729
upperback -0.54293 -0.181267 -5.9353
thorax 0.229061 -0.0981089 -6.30258
lowerneck -7.15663 0.938541 6.22886
upperneck 1.6111 0.567659 3.56737
head 1.72954 0.4186 0.087649
lclavicle 1.31198e-14 3.18055e-14 0
lhumerus -58.6912 -46.5236 115.413
lradius 55.6431 -0 0
lwrist 25.1921 0 0
lhand 37.2247 24.8582 0.000268565
lfingers 7.12502 -0 0
lthumb 60.0574 38.5776 0.000129038
rclavicle 1.31198e-14 3.18055e-14 0
rhumerus 2.8373 -23.8939 0.143531
rradius 27.6149 -0 0
rwrist -10.3209 0 0
rhand -30.7413 -42.9748 0.000496606
rfingers 7.12502 -0 0
rthumb -4.03338 -72.9161 0.000475621
1021
root 1.15159 15.1613 32.4482 4.85797 -3.53661 3.58318
lfemur 8.50508 0.562751 5.69462
ltibia -2.06736e-14 0 0
lfoot -30.149 -11.0532 -1.07917e-06
ltoes -34.3395 0 0
rfemur -31.6017 -15.9294 -6.04814
rtibia 50.1703 -0 0
rfoot -22.3477 4.91387 0.00115585
rtoes -42.3269 0 0
lowerback -1.45181 -0.138634 0.24247
upperback -0.539725 -0.172057 -5.94386
thorax 0.240172 -0.0932333 -6.30226
lowerneck -7.15376 0.93228 6.24875
upperneck 1.61358 0.557574 3.57044
head 1.7298 0.413862 0.084899
lclavicle 1.31198e-14 3.18055e-14 0
lhumerus -58.6891 -46.5393 115.405
lradius 55.6507 -0 0
lwrist 25.2009 0 0
lhand 37.2363 24.8822 0.000263682
lfingers 7.12502 -0 0
lthumb 60.0674 38.5911 0.000126692
rclavicle 1.31198e-14 3.18055e-14 0
rhumerus 2.82165 -23.8871 0.153719
rradius 27.6023 -0 0
rwrist -10.2815 0 0
rhand -30.7265 -42.9398 0.000487577
rfingers 7.12502 -0 0
rthumb -4.01911 -72.8814 0.000466973
1022
root 1.15231 15.161 32.4506 4.85419 -3.52598 3.5746
lfemur 8.51402 0.551867 5.70272
ltibia -2.06736e-14 0 0
lfoot -30.1527 -11.0529 -1.0392e-06
ltoes -34.3447 0 0
rfemur -31.587 -15.9408 -6.0488
rtibia 50.175 -0 0
rfoot -22.3249 4.96767 0.00111304
rtoes -42.2597 0 0
lowerback -1.46383 -0.132362 0.226209
upperback -0.536521 -0.162847 -5.95243
thorax 0.251283 -0.0883577 -6.30193
lowerneck -7.15089 0.926017 6.26865
upperneck 1.61605 0.547489 3.5735
head 1.73006 0.409125 0.082149
lclavicle 1.31198e-14 3.18055e-14 0
lhumerus -58.6869 -46.555 115.398
lradius 55.6583 -0 0
lwrist 25.2097 0 0
lhand 37.248 24.9062 0.000253916
lfingers 7.12502 -0 0
lthumb 60.0773 38.6046 0.000122
rclavicle 1.31198e-14 3.18055e-14 0
rhumerus 2.80601 -23.8803 0.163905
rradius 27.5897 -0 0
rwrist -10.2421 0 0
rhand -30.7117 -42.9048 0.000469519
rfingers 7.12502 -0 0
rthumb -4.00483 -72.8467 0.000449678
1023
root 1.15304 15.1607 32.453 4.85041 -3.51536 3.56603
lfemur 8.52295 0.540982 5.71081
ltibia -2.06736e-14 0 0
lfoot -30.1565 -11.0526 -9.79246e-07
ltoes -34.35 0 0
rfemur -31.5724 -15.9523 -6.04947
rtibia 50.1797 -0 0
rfoot -22.3021 5.02147 0.00104883
rtoes -42.1925 0 0
lowerback -1.47586 -0.126094 0.209948
upperback -0.533319 -0.153635 -5.961
thorax 0.262395 -0.0834822 -6.30161
lowerneck -7.14803 0.919754 6.28855
upperneck 1.61853 0.537404 3.57656
head 1.73033 0.404387 0.0793989
lclavicle 1.31198e-14 3.18055e-14 0
lhumerus -58.6848 -46.5706 115.391
lradius 55.666 -0 0
lwrist 25.2185 0 0
lhand 37.2597 24.9302 0.000239267
lfingers 7.12502 -0 0
lthumb 60.0873 38.618 0.000114961
rclavicle 1.31198e-14 3.18055e-14 0
rhumerus 2.79036 -23.8734 0.174088
rradius 27.5771 -0 0
rwrist -10.2026 0 0
rhand -30.697 -42.8698 0.000442431
rfingers 7.12502 -0 0
rthumb -3.99056 -72.812 0.000423735
